# AST/ASF file generated using VICON BodyLanguage
# -----------------------------------------------
:version 1.10
:name VICON
:units
  mass 1.0
  length 0.45
  angle deg
:documentation
   .ast/.asf automatically generated from VICON data using
   VICON BodyBuilder and BodyLanguage model FoxedUp or BRILLIANT.MOD
:root
   order TX TY TZ RX RY RZ
   axis XYZ
   position 0 0 0  
   orientation 0 0 0 
:bonedata
  begin
     id 1 
     name lhipjoint
     direction 0.677091 -0.635792 0.370561 
     length 2.74323 
     axis 0 0 0  XYZ
  end
  begin
     id 2 
     name lfemur
     direction 0.34202 -0.939693 0  
     length 7.44995  
     axis 0 0 20  XYZ
    dof rx ry rz
    limits (-160.0 20.0)
           (-70.0 70.0)
           (-60.0 70.0)
  end
  begin
     id 3 
     name ltibia
     direction 0.34202 -0.939693 0   
     length 7.34467   
     axis 0 0 20   XYZ
    dof rx
    limits (-10.0 170.0)
  end
  begin
     id 4 
     name lfoot
     direction 0.101953 -0.280114 0.954537   
     length 1.72105   
     axis -90 7.62852e-016 20   XYZ
    dof rx rz
    limits (-45.0 90.0)
           (-70.0 20.0)
  end
  begin
     id 5 
     name ltoes
     direction 1.53537e-011 -4.21915e-011 1   
     length 0.865872   
     axis -90 7.62852e-016 20   XYZ
    dof rx
    limits (-90.0 20.0)
  end
  begin
     id 6 
     name rhipjoint
     direction -0.695735 -0.620586 0.361699   
     length 2.81045  
     axis 0 0 0  XYZ 
  end
  begin
     id 7 
     name rfemur
     direction -0.34202 -0.939693 0   
     length 7.29387   
     axis 0 0 -20   XYZ
    dof rx ry rz
    limits (-160.0 20.0)
           (-70.0 70.0)
           (-70.0 60.0)
  end
  begin
     id 8 
     name rtibia
     direction -0.34202 -0.939693 0   
     length 7.44935   
     axis 0 0 -20   XYZ
    dof rx
    limits (-10.0 170.0)
 end
 begin
     id 9 
     name rfoot
     direction -0.104163 -0.286184 0.952496   
     length 1.77731  
     axis -90 -7.62852e-016 -20   XYZ
    dof rx rz
    limits (-45.0 90.0)
           (-20.0 70.0)
  end
  begin
     id 10 
     name rtoes
     direction -1.5355e-011 -4.21888e-011 1   
     length 0.892424   
     axis -90 -7.62852e-016 -20   XYZ
    dof rx
    limits (-90.0 20.0)
  end
  begin
     id 11 
     name lowerback
     direction 0.0100202 0.997226 -0.0737589   
     length 2.16892   
     axis 0 0 0   XYZ
    dof rx ry rz
    limits (-20.0 45.0)
           (-30.0 30.0)
           (-30.0 30.0)
  end
  begin
     id 12 
     name upperback
     direction 0.00432398 0.999988 -0.00215019   
     length 2.17326   
     axis 0 0 0   XYZ
    dof rx ry rz
    limits (-20.0 45.0)
           (-30.0 30.0)
           (-30.0 30.0)
  end
  begin
     id 13 
     name thorax
     direction -0.00195047 0.999485 0.0320434   
     length 2.18139   
     axis 0 0 0   XYZ
    dof rx ry rz
    limits (-20.0 45.0)
           (-30.0 30.0)
           (-30.0 30.0)
  end
  begin
     id 14 
     name lowerneck
     direction 0.00782762 0.986241 0.165128   
     length 1.88415   
     axis 0 0 0   XYZ
    dof rx ry rz
    limits (-20.0 45.0)
           (-30.0 30.0)
           (-30.0 30.0)
  end
  begin
     id 15 
     name upperneck
     direction 0.00988667 0.981098 -0.193258   
     length 1.9242   
     axis 0 0 0   XYZ
    dof rx ry rz
    limits (-20.0 45.0)
           (-30.0 30.0)
           (-30.0 30.0)
  end
  begin
     id 16
     name head
     direction 0.00252199 0.996513 -0.0833958  
     length 1.93887  
     axis 0 0 0   XYZ
    dof rx ry rz
    limits (-20.0 45.0)
           (-30.0 30.0)
           (-30.0 30.0)
  end
  begin
     id 17 
     name lclavicle
     direction 0.929492 0.368193 -0.0218667  
     length 3.5955  
     axis 0 0 0   XYZ
    dof ry rz
    limits (-20.0 10.0)
           (0.0 20.0)
  end
  begin
     id 18 
     name lhumerus
     direction 1 -4.48972e-011 1.41911e-027   
     length 5.2795   
     axis 180 -30 -90   XYZ
    dof rx ry rz
    limits (-60.0 90.0)
           (-90.0 90.0)
           (-90.0 90.0)
  end
  begin
     id 19
     name lradius
     direction 1 -4.48963e-011 7.05772e-027   
     length 3.53504   
     axis 180 -30 -90   XYZ
    dof rx
    limits (-10.0 170.0)
  end
  begin
     id 20
     name lwrist
     direction 1 -4.48957e-011 9.54866e-027   
     length 1.76752   
     axis -7.69462e-015 90 90   XYZ
    dof ry
    limits (-180.0 0.0)
 end
  begin
     id 21 
     name lhand
     direction 1 -4.48979e-011 1.90973e-026   
     length 0.667948   
     axis -1.21857e-014 90 90   XYZ
    dof rx rz
    limits (-90.0 90.0)
           (-45.0 45.0)
  end
  begin
     id 22 
     name lfingers
     direction 1 -4.48987e-011 3.81946e-026   
     length 0.538517   
     axis -2.43714e-014 90 90   XYZ
    dof rx
    limits (0.0 90.0)
  end
  begin
     id 23
     name lthumb
     direction 0.707107 -6.34962e-011 0.707107   
     length 0.773206   
     axis -90 45 2.85299e-015   XYZ
    dof rx rz
    limits (-45.0 45.0)
           (-45.0 45.0)
  end
  begin
     id 24 
     name rclavicle
     direction -0.898763 0.414256 -0.143584   
     length 3.5176  
     axis 0 0 0   XYZ 
    dof ry rz
    limits (-10.0 20.0)
           (-20.0 0.0)
  end
  begin
     id 25 
     name rhumerus
     direction -1 -4.48971e-011 1.129e-027  
     length 5.25035   
     axis 180 30 90   XYZ
    dof rx ry rz
    limits (-90.0 60.0)
           (-90.0 90.0)
           (-90.0 90.0)
  end
  begin
     id 26 
     name rradius
     direction -1 -4.48955e-011 6.34664e-027   
     length 3.58884   
     axis 180 30 90   XYZ
    dof rx
    limits (-10.0 170.0)
  end
  begin
     id 27 
     name rwrist
     direction -1 -4.48966e-011 9.54866e-027   
     length 1.79442   
     axis -7.69462e-015 -90 -90   XYZ
    dof ry
    limits (-180.0 0.0)
  end
  begin
     id 28
     name rhand
     direction -1 -4.48973e-011 1.90973e-026   
     length 0.779235   
     axis -1.21857e-014 -90 -90   XYZ
    dof rx rz
    limits (-90.0 90.0)
           (-45.0 45.0)
  end
  begin
     id 29
     name rfingers
     direction -1 -4.48984e-011 3.81946e-026   
     length 0.62824   
     axis -2.43714e-014 -90 -90   XYZ
    dof rx
    limits (0.0 90.0)
  end
  begin
     id 30
     name rthumb
     direction -0.707107 -6.34968e-011 0.707107   
     length 0.90203   
     axis -90 -45 -2.85299e-015   XYZ
    dof rx rz
    limits (-45.0 45.0)
           (-45.0 45.0)
  end
:hierarchy
  begin
    root lhipjoint rhipjoint lowerback
    lhipjoint lfemur
    lfemur ltibia
    ltibia lfoot
    lfoot ltoes
    rhipjoint rfemur
    rfemur rtibia
    rtibia rfoot
    rfoot rtoes
    lowerback upperback
    upperback thorax
    thorax lowerneck lclavicle rclavicle
    lowerneck upperneck
    upperneck head
    lclavicle lhumerus
    lhumerus lradius
    lradius lwrist
    lwrist lhand lthumb
    lhand lfingers
    rclavicle rhumerus
    rhumerus rradius
    rradius rwrist
    rwrist rhand rthumb
    rhand rfingers
  end

#!OML:ASF I:\Random Stuff\random\construction\7_22_03\Session 2\subj1.ASF
:FULLY-SPECIFIED
:DEGREES
211
root -7.07098 17.6826 5.29456 1.54559 55.9801 1.16966
lowerback 3.14226 -1.40429 3.98417
upperback -1.02614 -1.63043 2.01597
thorax -2.87323 -0.856861 -0.06578
lowerneck -22.2303 6.02725 4.9648
upperneck 39.0589 8.78171 -1.72483
head 18.9402 4.2113 0.365475
rclavicle -1.44367e-013 2.70347e-014
rhumerus -9.30897 -1.02858 -81.0431
rradius 102.922
rwrist -69.1548
rhand -33.566 20.4201
rfingers 7.12502
rthumb -6.76065 -9.45195
lclavicle -1.44367e-013 2.70347e-014
lhumerus 6.57438 -8.18002 71.1449
lradius 76.9983
lwrist 58.938
lhand -18.2278 62.4817
lfingers 7.12502
lthumb -171.95 87.6916
rfemur 3.91322 14.0657 24.2411
rtibia 7.85535
rfoot -10.5072 -19.1715
rtoes -5.66355
lfemur -17.9012 -1.59711 -13.0938
ltibia 24.4646
lfoot -10.4439 14.2888
ltoes -15.9433
212
root -6.98807 17.675 5.28447 1.11582 56.1248 0.512709
lowerback 3.16286 -1.35163 3.98672
upperback -1.13348 -1.55136 2.09716
thorax -2.99118 -0.8189 0.0142519
lowerneck -22.3387 6.05011 5.01155
upperneck 39.2496 8.72223 -1.5111
head 19.0676 4.22496 0.455041
rclavicle -9.59167e-014 2.38542e-015
rhumerus -9.5319 -0.907823 -80.8089
rradius 101.774
rwrist -67.3039
rhand -33.0236 19.1351
rfingers 7.12502
rthumb -6.23696 -10.7531
lclavicle -9.59167e-014 2.38542e-015
lhumerus 6.36839 -7.97443 70.3783
lradius 76.7615
lwrist 57.6582
lhand -18.3989 62.9952
lfingers 7.12502
lthumb -172.115 87.1718
rfemur 4.62766 13.5597 24.4155
rtibia 6.66801
rfoot -10.2785 -18.6703
rtoes -5.50626
lfemur -18.2399 -2.48178 -12.3988
ltibia 24.2513
lfoot -10.0779 15.2826
ltoes -18.4438
213
root -6.90047 17.6659 5.27232 0.687337 56.271 -0.193059
lowerback 3.15924 -1.32434 4.03978
upperback -1.23182 -1.50572 2.16706
thorax -3.08916 -0.798231 0.0556696
lowerneck -22.3755 6.0927 5.192
upperneck 39.2562 8.71812 -1.5298
head 19.0965 4.24724 0.416896
rclavicle 1.45804e-014 -1.98785e-014
rhumerus -9.68088 -0.83324 -80.5032
rradius 100.555
rwrist -65.3589
rhand -32.2527 18.158
rfingers 7.12502
rthumb -5.49272 -11.7508
lclavicle 1.45804e-014 -1.98785e-014
lhumerus 6.09053 -7.76887 69.5384
lradius 76.6843
lwrist 55.7523
lhand -18.4324 63.7974
lfingers 7.12502
lthumb -172.147 86.3685
rfemur 5.28177 13.0576 24.5692
rtibia 5.49626
rfoot -10.023 -18.2389
rtoes -5.95567
lfemur -18.5754 -3.44791 -11.6912
ltibia 23.9875
lfoot -10.7263 16.2914
ltoes -16.8574
214
root -6.80351 17.6551 5.2579 0.313004 56.4171 -0.821348
lowerback 3.05935 -1.30407 4.02266
upperback -1.26116 -1.4804 2.25782
thorax -3.05963 -0.783798 0.155119
lowerneck -22.5773 6.14886 5.46088
upperneck 39.3249 8.781 -1.74835
head 19.235 4.27405 0.29234
rclavicle 8.61227e-014 2.3059e-014
rhumerus -9.70188 -0.793836 -80.0173
rradius 99.3569
rwrist -63.7057
rhand -31.2927 17.109
rfingers 7.12502
rthumb -4.56577 -12.8218
lclavicle 8.61227e-014 2.3059e-014
lhumerus 5.84275 -7.49961 68.7838
lradius 76.6599
lwrist 53.8462
lhand -18.2198 64.4546
lfingers 7.12502
lthumb -171.942 85.7191
rfemur 5.9357 12.5567 24.6413
rtibia 4.38356
rfoot -9.79132 -17.8407
rtoes -6.67993
lfemur -18.8364 -4.63673 -11.0667
ltibia 23.6883
lfoot -11.0335 17.3091
ltoes -16.7238
215
root -6.69922 17.6438 5.23972 0.00735334 56.5382 -1.43093
lowerback 2.90058 -1.23072 4.05117
upperback -1.29953 -1.38674 2.315
thorax -3.00654 -0.736448 0.189442
lowerneck -22.6078 6.07363 5.22042
upperneck 39.2302 8.6387 -1.48305
head 19.1377 4.22145 0.424042
rclavicle 2.08833e-014 -4.69132e-014
rhumerus -9.78902 -1.08048 -79.457
rradius 98.3147
rwrist -62.6645
rhand -29.9295 15.5202
rfingers 7.12502
rthumb -3.24941 -14.4348
lclavicle 2.08833e-014 -4.69132e-014
lhumerus 5.70967 -7.23888 68.1474
lradius 76.5224
lwrist 51.9095
lhand -17.6202 64.9397
lfingers 7.12502
lthumb -171.363 85.257
rfemur 6.49032 12.0872 24.661
rtibia 3.39766
rfoot -9.6038 -17.4106
rtoes -7.22694
lfemur -19.1015 -5.87961 -10.5017
ltibia 23.3774
lfoot -11.4253 18.3176
ltoes -16.0806
216
root -6.59029 17.6309 5.21628 -0.265569 56.6692 -2.00867
lowerback 2.78794 -1.13325 4.11051
upperback -1.36297 -1.25738 2.3311
thorax -3.00616 -0.673384 0.164162
lowerneck -22.6319 5.98225 5.03504
upperneck 39.0533 8.43538 -1.21649
head 18.9922 4.15396 0.529648
rclavicle 3.96793e-014 -4.05521e-014
rhumerus -9.95606 -1.60838 -78.8427
rradius 97.4926
rwrist -62.1828
rhand -28.1397 13.2684
rfingers 7.12502
rthumb -1.52088 -16.7059
lclavicle 3.96793e-014 -4.05521e-014
lhumerus 5.71602 -7.03581 67.5562
lradius 76.1937
lwrist 49.9351
lhand -17.0836 65.4586
lfingers 7.12502
lthumb -170.845 84.7601
rfemur 6.92502 11.6091 24.6481
rtibia 2.67512
rfoot -9.57637 -16.9822
rtoes -7.20007
lfemur -19.3403 -6.76522 -10.0696
ltibia 23.0598
lfoot -11.7735 18.8963
ltoes -15.9269
